<svg width="20" height="16" viewBox="0 0 20 16" fill="white" xmlns="http://www.w3.org/2000/svg">
<path fill-rule="evenodd" clip-rule="evenodd" d="M3.249 0.280712C3.0604 0.0985537 2.80779 -0.00224062 2.5456 3.78026e-05C2.2834 0.00231622 2.03259 0.107485 1.84718 0.292893C1.66177 0.478301 1.5566 0.729114 1.55432 0.99131C1.55205 1.25351 1.65284 1.50611 1.835 1.69471L15.835 15.6947C16.0236 15.8769 16.2762 15.9777 16.5384 15.9754C16.8006 15.9731 17.0514 15.8679 17.2368 15.6825C17.4222 15.4971 17.5274 15.2463 17.5297 14.9841C17.532 14.7219 17.4312 14.4693 17.249 14.2807L15.776 12.8077C17.3335 11.5658 18.4853 9.88764 19.084 7.98771C17.81 3.93071 14.02 0.987712 9.542 0.987712C7.97443 0.985586 6.4285 1.35357 5.03 2.06171L3.25 0.280712H3.249ZM7.51 4.54071L9.024 6.05571C9.36309 5.96566 9.71988 5.96626 10.0587 6.05744C10.3975 6.14862 10.7064 6.32719 10.9544 6.57528C11.2025 6.82336 11.3811 7.13226 11.4723 7.47104C11.5635 7.80983 11.564 8.16662 11.474 8.50571L12.988 10.0197C13.439 9.25573 13.6232 8.36351 13.5117 7.48339C13.4001 6.60327 12.9991 5.78521 12.3718 5.15789C11.7445 4.53057 10.9264 4.12961 10.0463 4.01806C9.1662 3.90652 8.27398 4.09073 7.51 4.54171V4.54071Z" fill="#535C61"/>
<path d="M11.996 14.6847L9.292 11.9797C8.31969 11.9188 7.40303 11.5052 6.71406 10.8164C6.02509 10.1276 5.61117 9.21103 5.55 8.23874L1.877 4.56573C1.03221 5.57175 0.394349 6.73465 0 7.98773C1.274 12.0447 5.065 14.9877 9.542 14.9877C10.389 14.9877 11.211 14.8827 11.996 14.6847Z" fill="#FFF"/>
</svg>
